# xmcd
#
# Track frame offsets:
#	150
#	14922
#	28469
#	41738
#	61409
#	70938
#	83205
#	94260
#	106500
#	118094
#	133026
#	143339
#	154458
#	169656
#
# Disc length: 2424 seconds
#
# Revision: 0
# Processed by: cddbd v1.5.2PL0 Copyright (c) Steve Scherf et al.
# Submitted via: EZCDAudioConverter 2.1.7.1
#
DISCID=c509760e
DTITLE=V/A - We're With The Beatles
DYEAR=2013
DGENRE=MOJO
TTITLE0=James Hunter Six - It Won't Be Long
TTITLE1=Ian McNabb featuring Thomas McConnell - All I've Got To Do
TTITLE2=Chris Difford featuring Arcelia - All My Loving
TTITLE3=Eva Petersen featuring Will Sergeant - Don't Bother Me
TTITLE4=Wreckless Eric and James Nicholls - Little Child
TTITLE5=Taken By Trees - Till There Was You
TTITLE6=Mama Rosin featuring Mick Collins and Matt Verta-Ray - Please Mister Pos
TTITLE6=tman
TTITLE7=The View - Roll Over Beethoven
TTITLE8=Sara Lowes - Hold Me Tight
TTITLE9=Jacco Gardner - You Really Got A Hold On Me
TTITLE10=Pete Molinari - I Wanna Be Your Man
TTITLE11=Trevor Moss and Hannah-Lou - Devil In Her Heart
TTITLE12=Magic Arm - Not A Second Time
TTITLE13=Kitty, Daisy and Lewis - Money (That's What I Want)
EXTD=
EXTT0=
EXTT1=
EXTT2=
EXTT3=
EXTT4=
EXTT5=
EXTT6=
EXTT7=
EXTT8=
EXTT9=
EXTT10=
EXTT11=
EXTT12=
EXTT13=
PLAYORDER=
